<svg width="48" height="48" viewBox="0 0 48 48" fill="none" xmlns="http://www.w3.org/2000/svg">
<path d="M26.5979 6.2959L43.8659 36.2039C44.1292 36.6599 44.2678 37.1773 44.2678 37.7039C44.2678 38.2305 44.1292 38.7478 43.8659 39.2039C43.6026 39.6599 43.2239 40.0386 42.7678 40.3019C42.3118 40.5653 41.7945 40.7039 41.2679 40.7039H6.73186C6.20525 40.7039 5.68793 40.5653 5.23188 40.3019C4.77584 40.0386 4.39713 39.6599 4.13384 39.2039C3.87054 38.7478 3.73193 38.2305 3.73193 37.7039C3.73194 37.1773 3.87056 36.6599 4.13386 36.2039L21.4019 6.2959C22.5559 4.2959 25.4419 4.2959 26.5979 6.2959ZM23.9999 9.7959L8.46386 36.7039H39.5359L23.9999 9.7959ZM23.9999 29.9999C24.5303 29.9999 25.039 30.2106 25.4141 30.5857C25.7891 30.9608 25.9999 31.4695 25.9999 31.9999C25.9999 32.5303 25.7891 33.039 25.4141 33.4141C25.039 33.7892 24.5303 33.9999 23.9999 33.9999C23.4694 33.9999 22.9607 33.7892 22.5856 33.4141C22.2106 33.039 21.9999 32.5303 21.9999 31.9999C21.9999 31.4695 22.2106 30.9608 22.5856 30.5857C22.9607 30.2106 23.4694 29.9999 23.9999 29.9999ZM23.9999 15.9999C24.5303 15.9999 25.039 16.2106 25.4141 16.5857C25.7891 16.9608 25.9999 17.4695 25.9999 17.9999V25.9999C25.9999 26.5303 25.7891 27.039 25.4141 27.4141C25.039 27.7892 24.5303 27.9999 23.9999 27.9999C23.4694 27.9999 22.9607 27.7892 22.5856 27.4141C22.2106 27.039 21.9999 26.5303 21.9999 25.9999V17.9999C21.9999 17.4695 22.2106 16.9608 22.5856 16.5857C22.9607 16.2106 23.4694 15.9999 23.9999 15.9999Z" fill="currentColor"/>
</svg>