<svg width="500" height="522" viewBox="0 0 500 522" fill="none" xmlns="http://www.w3.org/2000/svg">
<path d="M231.381 0L500 268.425L456.204 312.189V313.357H455.035L294.961 473.316C278.097 490.163 255.227 499.627 231.381 499.627C207.535 499.627 184.665 490.163 167.8 473.316L26.3414 331.982C17.9902 323.637 11.3656 313.73 6.84592 302.827C2.32625 291.924 0 280.238 0 268.436C0 256.635 2.32625 244.949 6.84592 234.046C11.3656 223.142 17.9902 213.236 26.3414 204.891L126.118 105.164L64.6963 43.764L96.4864 11.9969L157.931 73.3968L231.381 0ZM157.931 136.953L58.1539 236.658C49.3858 245.42 44.9793 256.922 44.9793 268.425H436.397L231.381 63.5342L189.743 105.164L263.171 178.561L231.381 210.328L157.931 136.953ZM450.584 411.939L480.126 449.255C493.188 465.745 493.188 490.772 480.126 507.24C476.642 511.775 472.172 515.461 467.055 518.018C461.937 520.575 456.305 521.936 450.584 522C438.668 522 428.101 516.159 421.042 507.24C407.98 490.772 407.98 465.745 421.042 449.255L450.584 411.939Z" fill="black"/>
</svg>
