<svg width="48" height="48" viewBox="0 0 48 48" fill="none" xmlns="http://www.w3.org/2000/svg">
<path d="M19.0999 30.3L36.0499 13.35C36.4499 12.95 36.9165 12.75 37.4499 12.75C37.9832 12.75 38.4499 12.95 38.8499 13.35C39.2499 13.75 39.4499 14.2253 39.4499 14.776C39.4499 15.3267 39.2499 15.8013 38.8499 16.2L20.4999 34.6C20.0999 35 19.6332 35.2 19.0999 35.2C18.5665 35.2 18.0999 35 17.6999 34.6L9.09987 26C8.69987 25.6 8.50787 25.1253 8.52387 24.576C8.53987 24.0267 8.74854 23.5513 9.14987 23.15C9.55121 22.7487 10.0265 22.5487 10.5759 22.55C11.1252 22.5513 11.5999 22.7513 11.9999 23.15L19.0999 30.3Z" fill="currentColor"/>
</svg>