<svg width="49" height="49" viewBox="0 0 49 49" fill="none" xmlns="http://www.w3.org/2000/svg">
<path d="M28.9502 44.9442H20.0498V48.2819H28.9502V44.9442ZM3.91775 28.8122V19.9117H0.580081V28.8122H3.91775ZM45.0823 27.8398V28.8122H48.4199V27.8398H45.0823ZM30.9328 7.92061L39.742 15.8487L41.9738 13.3655L33.1668 5.43739L30.9328 7.92061ZM48.4199 27.8398C48.4199 24.0816 48.4533 21.7007 47.5076 19.5735L44.457 20.9331C45.0489 22.2637 45.0823 23.7879 45.0823 27.8398H48.4199ZM39.742 15.8487C42.7526 18.5589 43.8651 19.6047 44.457 20.9331L47.5076 19.5735C46.5597 17.4441 44.7685 15.8798 41.9738 13.3655L39.742 15.8487ZM20.1165 3.77968C23.6367 3.77968 24.9651 3.80639 26.1466 4.26031L27.3437 1.14515C25.4479 0.415317 23.383 0.442019 20.1165 0.442019V3.77968ZM33.1668 5.43962C30.7503 3.26568 29.2395 1.87054 27.3437 1.14515L26.1488 4.26031C27.3326 4.71423 28.3294 5.57757 30.9328 7.92061L33.1668 5.43962ZM20.0498 44.9442C15.8065 44.9442 12.7937 44.9398 10.5041 44.6327C8.26783 44.3323 6.97727 43.7671 6.03605 42.8259L3.67743 45.1845C5.34181 46.8534 7.45344 47.5899 10.0613 47.9414C12.6201 48.2863 15.9022 48.2819 20.0498 48.2819V44.9442ZM0.580081 28.8122C0.580081 32.9598 0.575631 36.2396 0.920523 38.8007C1.27209 41.4085 2.01083 43.5202 3.67521 45.1868L6.03382 42.8281C5.09483 41.8847 4.52965 40.5941 4.22926 38.3557C3.9222 36.0705 3.91775 33.0555 3.91775 28.8122H0.580081ZM28.9502 48.2819C33.0978 48.2819 36.3776 48.2863 38.9387 47.9414C41.5466 47.5899 43.6582 46.8511 45.3248 45.1868L42.9662 42.8281C42.0227 43.7671 40.7322 44.3323 38.4937 44.6327C36.2085 44.9398 33.1935 44.9442 28.9502 44.9442V48.2819ZM45.0823 28.8122C45.0823 33.0555 45.0778 36.0705 44.7708 38.3579C44.4704 40.5941 43.9052 41.8847 42.964 42.8259L45.3226 45.1845C46.9914 43.5202 47.7279 41.4085 48.0795 38.8007C48.4244 36.2418 48.4199 32.9598 48.4199 28.8122H45.0823ZM3.91775 19.9117C3.91775 15.6684 3.9222 12.6556 4.22926 10.366C4.52965 8.12978 5.09483 6.83921 6.03605 5.89799L3.67743 3.53937C2.0086 5.20375 1.27209 7.31538 0.920523 9.92321C0.575631 12.4821 0.580081 15.7641 0.580081 19.9117H3.91775ZM20.1165 0.442019C15.9445 0.442019 12.6491 0.437568 10.0791 0.782461C7.46012 1.13403 5.34181 1.87276 3.67521 3.53715L6.03382 5.89576C6.97727 4.95677 8.27006 4.39159 10.5219 4.0912C12.8204 3.78413 15.851 3.77968 20.1165 3.77968V0.442019Z" fill="black"/>
<path d="M26.7246 3.2251V8.78787C26.7246 14.0325 26.7246 16.6559 28.3534 18.2846C29.9822 19.9134 32.6056 19.9134 37.8502 19.9134H46.7506" fill="black"/>
</svg>