<svg width="24" height="15" viewBox="0 0 24 15" fill="none" xmlns="http://www.w3.org/2000/svg">
<path fill-rule="evenodd" clip-rule="evenodd" d="M0.75 1.75C0.75 1.41848 0.881696 1.10054 1.11612 0.866117C1.35054 0.631696 1.66848 0.5 2 0.5H22C22.3315 0.5 22.6495 0.631696 22.8839 0.866117C23.1183 1.10054 23.25 1.41848 23.25 1.75C23.25 2.08152 23.1183 2.39946 22.8839 2.63388C22.6495 2.8683 22.3315 3 22 3H2C1.66848 3 1.35054 2.8683 1.11612 2.63388C0.881696 2.39946 0.75 2.08152 0.75 1.75ZM3.25 7.375C3.25 7.04348 3.3817 6.72554 3.61612 6.49112C3.85054 6.2567 4.16848 6.125 4.5 6.125H19.5C19.8315 6.125 20.1495 6.2567 20.3839 6.49112C20.6183 6.72554 20.75 7.04348 20.75 7.375C20.75 7.70652 20.6183 8.02446 20.3839 8.25888C20.1495 8.4933 19.8315 8.625 19.5 8.625H4.5C4.16848 8.625 3.85054 8.4933 3.61612 8.25888C3.3817 8.02446 3.25 7.70652 3.25 7.375ZM7 13C7 12.6685 7.1317 12.3505 7.36612 12.1161C7.60054 11.8817 7.91848 11.75 8.25 11.75H15.75C16.0815 11.75 16.3995 11.8817 16.6339 12.1161C16.8683 12.3505 17 12.6685 17 13C17 13.3315 16.8683 13.6495 16.6339 13.8839C16.3995 14.1183 16.0815 14.25 15.75 14.25H8.25C7.91848 14.25 7.60054 14.1183 7.36612 13.8839C7.1317 13.6495 7 13.3315 7 13Z" fill="currentColor"/>
</svg>