<svg width="120" height="188" viewBox="0 0 120 188" fill="none" xmlns="http://www.w3.org/2000/svg">
<path d="M44.4652 5L5.39515 96.28C5.07373 97.0449 4.94531 97.8771 5.02123 98.7033C5.09714 99.5295 5.37504 100.324 5.83047 101.018C6.28589 101.711 6.90485 102.282 7.63284 102.68C8.36084 103.078 9.17552 103.291 10.0052 103.3L33.4497 102.843C34.1594 102.849 34.8599 103.004 35.5052 103.3C36.1505 103.596 36.7261 104.024 37.1944 104.557C37.6626 105.091 38.0129 105.717 38.2224 106.395C38.4318 107.073 38.4956 107.788 38.4097 108.493L10.0052 181.46C9.89519 182.48 11.1852 183.01 11.8052 182.18L113.985 81C116.475 77.66 114.125 72.87 110.005 72.87H81.2851C80.4631 72.8606 79.6557 72.6511 78.9328 72.2595C78.2099 71.868 77.5933 71.3062 77.1364 70.6227C76.6794 69.9393 76.3959 69.1548 76.3103 68.3371C76.2247 67.5195 76.3396 66.6932 76.6451 65.93L97.5052 12.3782C98.7952 9.03818 96.5352 5 93.0052 5H71.1552L35.9411 85.8701H68.4411L57.5052 112.37" stroke="currentColor" stroke-width="20" stroke-linecap="round" stroke-linejoin="round"/>
</svg>
