<svg width="500" height="522" viewBox="0 0 500 522" fill="none" xmlns="http://www.w3.org/2000/svg">
<path fill-rule="evenodd" clip-rule="evenodd" d="M144.941 373.319C141.293 382.111 133.423 389.401 123.047 393.599C112.67 397.796 100.628 398.562 89.5453 395.729C78.4623 392.895 69.2365 386.693 63.8785 378.472C58.5205 370.252 57.4647 360.681 60.9412 351.844L188.794 35.4787C192.962 25.1738 201.133 16.1865 212.132 9.8108C223.131 3.43513 236.39 0 250 0C263.61 0 276.869 3.43513 287.868 9.8108C298.867 16.1865 307.038 25.1738 311.206 35.4787L439.059 351.844C440.883 356.242 441.595 360.883 441.154 365.501C440.713 370.118 439.126 374.62 436.487 378.748C433.847 382.876 430.206 386.547 425.774 389.55C421.342 392.553 416.207 394.829 410.664 396.246C405.121 397.663 399.28 398.194 393.478 397.807C387.676 397.42 382.027 396.123 376.858 393.992C371.689 391.861 367.102 388.937 363.36 385.389C359.619 381.84 356.798 377.738 355.059 373.319L317.618 280.706H182.382L144.941 373.319ZM210.735 210.528H289.265L250 113.354L210.735 210.528ZM0 456.153C0 446.847 4.6481 437.922 12.9218 431.341C21.1954 424.76 32.4169 421.064 44.1176 421.064H455.882C467.583 421.064 478.805 424.76 487.078 431.341C495.352 437.922 500 446.847 500 456.153C500 465.459 495.352 474.384 487.078 480.965C478.805 487.545 467.583 491.242 455.882 491.242H44.1176C32.4169 491.242 21.1954 487.545 12.9218 480.965C4.6481 474.384 0 465.459 0 456.153Z" fill="black"/>
</svg>
