<svg width="18" height="18" viewBox="0 0 18 18" fill="none" xmlns="http://www.w3.org/2000/svg">
<path d="M8.16699 13.1665H9.83366V8.1665H8.16699V13.1665ZM9.00033 6.49984C9.23644 6.49984 9.43449 6.41984 9.59449 6.25984C9.75449 6.09984 9.83422 5.90206 9.83366 5.6665C9.8331 5.43095 9.7531 5.23317 9.59366 5.07317C9.43421 4.91317 9.23644 4.83317 9.00033 4.83317C8.76422 4.83317 8.56644 4.91317 8.40699 5.07317C8.24755 5.23317 8.16755 5.43095 8.16699 5.6665C8.16644 5.90206 8.24644 6.10012 8.40699 6.26067C8.56755 6.42123 8.76533 6.50095 9.00033 6.49984ZM9.00033 17.3332C7.84755 17.3332 6.76422 17.1143 5.75033 16.6765C4.73644 16.2387 3.85449 15.6451 3.10449 14.8957C2.35449 14.1462 1.76088 13.2643 1.32366 12.2498C0.886438 11.2354 0.667549 10.1521 0.666993 8.99984C0.666438 7.84762 0.885327 6.76428 1.32366 5.74984C1.76199 4.73539 2.3556 3.85345 3.10449 3.104C3.85338 2.35456 4.73533 1.76095 5.75033 1.32317C6.76533 0.885393 7.84866 0.666504 9.00033 0.666504C10.152 0.666504 11.2353 0.885393 12.2503 1.32317C13.2653 1.76095 14.1473 2.35456 14.8962 3.104C15.6451 3.85345 16.2389 4.73539 16.6778 5.74984C17.1167 6.76428 17.3353 7.84762 17.3337 8.99984C17.332 10.1521 17.1131 11.2354 16.677 12.2498C16.2409 13.2643 15.6473 14.1462 14.8962 14.8957C14.1451 15.6451 13.2631 16.239 12.2503 16.6773C11.2375 17.1157 10.1542 17.3343 9.00033 17.3332ZM9.00033 15.6665C10.8614 15.6665 12.4378 15.0207 13.7295 13.729C15.0212 12.4373 15.667 10.8609 15.667 8.99984C15.667 7.13873 15.0212 5.56234 13.7295 4.27067C12.4378 2.979 10.8614 2.33317 9.00033 2.33317C7.13921 2.33317 5.56283 2.979 4.27116 4.27067C2.97949 5.56234 2.33366 7.13873 2.33366 8.99984C2.33366 10.8609 2.97949 12.4373 4.27116 13.729C5.56283 15.0207 7.13921 15.6665 9.00033 15.6665Z" fill="currentColor"/>
</svg>
