<svg width="16" height="16" viewBox="0 0 16 16" fill="none" xmlns="http://www.w3.org/2000/svg">
<path fill-rule="evenodd" clip-rule="evenodd" d="M3.20987 2.50003C3.20988 2.4076 3.18426 2.31697 3.13586 2.23821C3.08747 2.15946 3.01819 2.09567 2.93572 2.05391C2.85325 2.01216 2.76082 1.99409 2.6687 2.0017C2.57658 2.00931 2.48837 2.04231 2.41387 2.09703L1.70387 2.62103C1.60423 2.6946 1.53544 2.80253 1.51082 2.92392C1.48621 3.04531 1.50753 3.17151 1.57065 3.27808C1.63377 3.38465 1.7342 3.464 1.85248 3.50076C1.97076 3.53751 2.09847 3.52906 2.21087 3.47703V5.00003C2.21087 5.13264 2.26355 5.25982 2.35732 5.35358C2.45109 5.44735 2.57826 5.50003 2.71087 5.50003C2.84348 5.50003 2.97066 5.44735 3.06443 5.35358C3.15819 5.25982 3.21087 5.13264 3.21087 5.00003L3.20987 2.50003ZM5.74987 3.00003C5.55096 3.00003 5.3602 3.07905 5.21954 3.2197C5.07889 3.36035 4.99987 3.55112 4.99987 3.75003C4.99987 3.94894 5.07889 4.13971 5.21954 4.28036C5.3602 4.42101 5.55096 4.50003 5.74987 4.50003H14.2499C14.4488 4.50003 14.6396 4.42101 14.7802 4.28036C14.9209 4.13971 14.9999 3.94894 14.9999 3.75003C14.9999 3.55112 14.9209 3.36035 14.7802 3.2197C14.6396 3.07905 14.4488 3.00003 14.2499 3.00003H5.74987ZM5.74987 11.5C5.55096 11.5 5.3602 11.579 5.21954 11.7197C5.07889 11.8604 4.99987 12.0511 4.99987 12.25C4.99987 12.4489 5.07889 12.6397 5.21954 12.7804C5.3602 12.921 5.55096 13 5.74987 13H14.2499C14.4488 13 14.6396 12.921 14.7802 12.7804C14.9209 12.6397 14.9999 12.4489 14.9999 12.25C14.9999 12.0511 14.9209 11.8604 14.7802 11.7197C14.6396 11.579 14.4488 11.5 14.2499 11.5H5.74987ZM4.99987 8.00003C4.99987 7.80112 5.07889 7.61035 5.21954 7.4697C5.3602 7.32905 5.55096 7.25003 5.74987 7.25003H14.2499C14.4488 7.25003 14.6396 7.32905 14.7802 7.4697C14.9209 7.61035 14.9999 7.80112 14.9999 8.00003C14.9999 8.19894 14.9209 8.38971 14.7802 8.53036C14.6396 8.67101 14.4488 8.75003 14.2499 8.75003H5.74987C5.55096 8.75003 5.3602 8.67101 5.21954 8.53036C5.07889 8.38971 4.99987 8.19894 4.99987 8.00003ZM2.40387 7.33003C2.33387 7.38103 2.31687 7.42703 2.31387 7.44603C2.28945 7.57279 2.21694 7.68518 2.11154 7.7597C2.00613 7.83421 1.87599 7.86508 1.74834 7.84583C1.6207 7.82658 1.50545 7.75871 1.42671 7.65642C1.34796 7.55413 1.31183 7.42535 1.32587 7.29703C1.37687 6.95203 1.58587 6.68703 1.82087 6.51803C2.05687 6.34903 2.35187 6.25003 2.65087 6.25003C2.99587 6.25003 3.31687 6.35903 3.55287 6.59303C3.78887 6.82703 3.88987 7.13603 3.88987 7.44303C3.88987 7.95303 3.56887 8.29803 3.12987 8.72103L3.10987 8.73903L3.09687 8.75003H3.58987C3.72248 8.75003 3.84966 8.80271 3.94343 8.89648C4.03719 8.99025 4.08987 9.11742 4.08987 9.25003C4.08987 9.38264 4.03719 9.50982 3.94343 9.60359C3.84966 9.69735 3.72248 9.75003 3.58987 9.75003H1.74987C1.6478 9.75001 1.54819 9.71874 1.46441 9.66044C1.38063 9.60214 1.3167 9.5196 1.2812 9.4239C1.24571 9.3282 1.24036 9.22393 1.26586 9.1251C1.29136 9.02626 1.3465 8.93761 1.42387 8.87103L2.44587 7.99103C2.66887 7.77503 2.78387 7.64703 2.84387 7.55703C2.88987 7.48803 2.88987 7.46503 2.88987 7.44603V7.44403C2.88987 7.35403 2.86287 7.31703 2.84887 7.30303C2.83587 7.29003 2.78687 7.25003 2.64987 7.25003C2.56171 7.25145 2.476 7.27932 2.40387 7.33003ZM1.89987 10.5C1.76726 10.5 1.64009 10.5527 1.54632 10.6465C1.45255 10.7402 1.39987 10.8674 1.39987 11C1.39987 11.1326 1.45255 11.2598 1.54632 11.3536C1.64009 11.4474 1.76726 11.5 1.89987 11.5H2.27987L2.12987 11.68C2.06912 11.753 2.03039 11.8417 2.0182 11.9358C2.00601 12.03 2.02087 12.1256 2.06104 12.2116C2.10121 12.2976 2.16503 12.3704 2.24504 12.4215C2.32505 12.4726 2.41795 12.4998 2.51287 12.5C2.77187 12.5 2.87787 12.577 2.91987 12.622C2.97087 12.676 2.99987 12.755 2.99987 12.84C3.00035 12.845 2.99892 12.85 2.99587 12.854C2.98043 12.8749 2.96107 12.8926 2.93887 12.906C2.82634 12.9712 2.69787 13.0038 2.56787 13C2.47852 13.0023 2.38996 12.9827 2.30987 12.943C2.25087 12.911 2.23487 12.882 2.23387 12.879C2.17871 12.7584 2.07786 12.6645 1.95353 12.6182C1.82919 12.5719 1.69155 12.5769 1.57087 12.632C1.4502 12.6872 1.35638 12.788 1.31006 12.9124C1.26374 13.0367 1.26871 13.1744 1.32387 13.295C1.53687 13.759 2.05187 14 2.56787 14C2.88687 14 3.21887 13.918 3.48787 13.742C3.76287 13.561 3.99987 13.255 3.99987 12.84C3.99987 12.547 3.90387 12.206 3.64487 11.934C3.56983 11.8551 3.48517 11.7859 3.39287 11.728L3.73287 11.321C3.79393 11.2481 3.83292 11.1593 3.84528 11.065C3.85764 10.9707 3.84285 10.8748 3.80264 10.7886C3.76243 10.7025 3.69848 10.6295 3.61828 10.5784C3.53809 10.5273 3.44498 10.5001 3.34987 10.5H1.89987Z" fill="black"/>
</svg>
