<svg width="284" height="284" viewBox="0 0 284 284" fill="none" xmlns="http://www.w3.org/2000/svg">
<path d="M188.911 68.2367L141.081 112.276M231.257 109.751C242.874 98.6765 249.303 83.8439 249.157 68.448C249.012 53.052 242.305 38.3245 230.481 27.4376C218.656 16.5506 202.661 10.3751 185.94 10.2414C169.218 10.1076 153.109 16.0261 141.081 26.7223L62.8672 100.644M38.8027 123.389C20.8612 139.908 10.7817 162.313 10.7817 185.675C10.7817 209.037 20.8612 231.442 38.8027 247.961C56.7442 264.48 81.0781 273.761 106.451 273.761C123.74 273.761 140.546 269.452 155.176 261.481M274.302 154.489L184.055 238.815M112.561 138.535L83.907 164.918C80.8615 167.626 78.4322 170.866 76.7611 174.448C75.0899 178.03 74.2102 181.882 74.1735 185.78C74.1367 189.679 74.9435 193.545 76.5468 197.153C78.1501 200.761 80.5178 204.039 83.5118 206.796C86.5057 209.553 90.066 211.733 93.9848 213.209C97.9036 214.685 102.103 215.428 106.336 215.394C110.57 215.36 114.755 214.55 118.645 213.012C122.535 211.473 126.054 209.236 128.995 206.432L204.992 134.583" stroke="#882626" stroke-width="25" stroke-linecap="round" stroke-linejoin="round"/>
</svg>
