<svg width="1094" height="284" viewBox="0 0 1094 284" fill="none" xmlns="http://www.w3.org/2000/svg">
<path d="M188.911 68.2367L141.081 112.276M231.257 109.751C242.874 98.6765 249.303 83.8439 249.157 68.448C249.012 53.052 242.305 38.3245 230.481 27.4376C218.656 16.5506 202.661 10.3751 185.94 10.2414C169.218 10.1076 153.109 16.0261 141.081 26.7223L62.8672 100.644M38.8027 123.389C20.8612 139.908 10.7817 162.313 10.7817 185.675C10.7817 209.037 20.8612 231.442 38.8027 247.961C56.7442 264.48 81.0781 273.761 106.451 273.761C123.74 273.761 140.546 269.452 155.176 261.481M274.302 154.489L184.055 238.815M112.561 138.535L83.907 164.918C80.8615 167.626 78.4322 170.866 76.7611 174.448C75.0899 178.03 74.2102 181.882 74.1735 185.78C74.1367 189.679 74.9435 193.545 76.5468 197.153C78.1501 200.761 80.5178 204.039 83.5118 206.796C86.5057 209.553 90.066 211.733 93.9848 213.209C97.9036 214.685 102.103 215.428 106.336 215.394C110.57 215.36 114.755 214.55 118.645 213.012C122.535 211.473 126.054 209.236 128.995 206.432L204.992 134.583" stroke="currentColor" stroke-width="25" stroke-linecap="round" stroke-linejoin="round"/>
<path d="M323.913 77.5919C321.015 72.7046 322.351 70.2609 327.92 70.2609H342.837C345.792 70.2609 348.407 72.2215 350.68 76.1427L368.837 107.768C369.348 108.62 370.854 111.291 373.355 115.781C375.855 120.214 377.304 124.533 377.702 128.738H378.043C378.441 124.533 379.89 120.214 382.39 115.781C384.891 111.291 386.397 108.62 386.908 107.768L405.065 76.1427C407.338 72.2215 409.952 70.2609 412.907 70.2609H427.825C433.394 70.2609 434.73 72.7046 431.832 77.5919L390.318 147.747V187.812C390.318 190.937 388.329 192.5 384.351 192.5H371.394C367.416 192.5 365.427 190.937 365.427 187.812V147.747L323.913 77.5919ZM430.979 168.632C430.979 157.266 436.406 149.026 447.261 143.911C458.115 138.797 470.504 136.069 484.427 135.728V132.318C484.427 127.09 483.12 123.396 480.505 121.237C477.891 119.077 474.254 117.997 469.594 117.997C466.298 117.997 463.372 118.48 460.814 119.446C458.314 120.356 456.126 121.435 454.251 122.686C452.432 123.879 450.784 125.101 449.306 126.351C446.692 128.624 444.533 128.738 442.828 126.692L435.753 117.997C433.991 115.838 434.417 113.621 437.031 111.348C439.02 109.587 441.322 108.052 443.936 106.745C446.607 105.438 450.13 104.216 454.506 103.08C458.882 101.886 464.565 101.29 471.555 101.29C483.375 101.29 492.44 104.017 498.748 109.473C505.112 114.928 508.295 122.97 508.295 133.597V187.385C508.295 190.795 506.59 192.5 503.18 192.5H489.2C486.132 192.5 484.597 190.795 484.597 187.385V184.828H484.427C481.074 188.067 477.039 190.454 472.322 191.989C467.662 193.466 463.372 194.205 459.45 194.205C450.13 194.205 443.055 191.932 438.225 187.385C433.394 182.782 430.979 176.531 430.979 168.632ZM456.211 168.12C456.211 170.109 456.609 171.843 457.405 173.32C458.2 174.741 459.45 175.792 461.155 176.474C462.86 177.156 464.764 177.497 466.867 177.497C469.765 177.497 472.578 177.099 475.306 176.304C478.033 175.508 481.074 173.633 484.427 170.678V152.18C474.879 153.26 468.486 154.652 465.247 156.357C462.008 158.062 459.678 159.823 458.257 161.642C456.893 163.46 456.211 165.62 456.211 168.12ZM536.681 192.5C533.271 192.5 531.566 190.795 531.566 187.385V108.109C531.566 104.699 533.271 102.994 536.681 102.994H550.149C553.559 102.994 555.264 104.699 555.264 108.109V113.053H555.605C558.219 108.564 561.544 105.495 565.578 103.847C569.613 102.142 574.472 101.29 580.155 101.29C589.02 101.29 596.351 104.074 602.148 109.643C607.944 115.213 610.843 125.385 610.843 140.161V187.385C610.843 190.795 609.138 192.5 605.728 192.5H592.089C588.679 192.5 586.975 190.795 586.975 187.385V146.298C586.975 133.909 586.122 126.095 584.417 122.856C582.712 119.617 579.047 117.997 573.421 117.997C567.454 117.997 562.964 120.327 559.952 124.987C556.94 129.59 555.434 139.194 555.434 153.799V187.385C555.434 190.795 553.73 192.5 550.32 192.5H536.681ZM629.085 147.747C629.085 133.256 632.807 121.89 640.252 113.65C647.753 105.41 658.892 101.29 673.667 101.29C688.443 101.29 699.553 105.41 706.997 113.65C714.499 121.89 718.249 133.256 718.249 147.747C718.249 162.239 714.499 173.604 706.997 181.845C699.553 190.085 688.443 194.205 673.667 194.205C658.892 194.205 647.753 190.085 640.252 181.845C632.807 173.604 629.085 162.239 629.085 147.747ZM654.317 147.747C654.317 158.545 655.965 166.217 659.261 170.763C662.614 175.252 667.416 177.497 673.667 177.497C679.918 177.497 684.692 175.252 687.988 170.763C691.341 166.217 693.017 158.545 693.017 147.747C693.017 136.95 691.341 129.306 687.988 124.817C684.692 120.27 679.918 117.997 673.667 117.997C667.416 117.997 662.614 120.27 659.261 124.817C655.965 129.306 654.317 136.95 654.317 147.747ZM733.678 120.043C730.326 120.043 728.649 118.622 728.649 115.781V107.257C728.649 104.415 730.326 102.994 733.678 102.994H739.475V100.011C739.475 97.4536 740.072 95.1236 741.265 93.0209L747.829 81.5131C749.079 79.3536 750.557 78.2738 752.261 78.2738H758.229C761.638 78.2738 763.343 79.9787 763.343 83.3884V102.994H777.153C780.505 102.994 782.182 104.415 782.182 107.257V115.781C782.182 118.622 780.505 120.043 777.153 120.043H763.343V162.324C763.343 168.12 763.741 172.297 764.537 174.855C765.389 177.355 767.548 178.605 771.015 178.605C772.777 178.605 774.766 178.321 776.982 177.753C779.198 177.128 780.932 176.531 782.182 175.963C784.171 175.054 785.478 175.707 786.103 177.923L788.66 187.641C789.172 189.573 788.433 190.994 786.444 191.903C784.569 192.756 781.983 193.523 778.687 194.205C775.448 194.944 772.18 195.313 768.884 195.313C760.757 195.313 753.824 193.637 748.085 190.284C742.345 186.931 739.475 180.026 739.475 169.57V120.043H733.678ZM799.913 147.747C799.913 133.369 803.493 122.032 810.653 113.735C817.871 105.438 828.043 101.29 841.17 101.29C856.401 101.29 867.71 105.211 875.097 113.053C882.485 120.896 886.179 133.512 886.179 150.901C886.179 154.311 884.588 156.016 881.405 156.016H825.145C826.054 165.449 828.384 171.388 832.135 173.832C835.885 176.275 840.233 177.497 845.177 177.497C849.894 177.497 853.502 176.872 856.003 175.622C858.503 174.372 860.606 172.667 862.311 170.507C864.243 168.007 866.63 167.609 869.471 169.314L877.996 174.514C881.348 176.559 881.832 179.003 879.445 181.845C875.978 185.993 871.915 189.09 867.255 191.136C862.595 193.182 855.236 194.205 845.177 194.205C828.867 194.205 817.245 190.056 810.312 181.759C803.379 173.462 799.913 162.125 799.913 147.747ZM825.23 138.967H862.311C862.311 132.83 860.776 127.829 857.708 123.964C854.639 120.043 849.752 118.082 843.046 118.082C837.704 118.082 833.47 119.958 830.344 123.709C827.219 127.402 825.514 132.489 825.23 138.967ZM909.877 192.5C906.467 192.5 904.762 190.795 904.762 187.385V86.7129C904.762 84.1556 905.359 81.8256 906.552 79.723L913.116 68.2151C914.366 66.0556 915.844 64.9758 917.549 64.9758H923.516C926.925 64.9758 928.63 66.6807 928.63 70.0905V187.385C928.63 190.795 926.925 192.5 923.516 192.5H909.877ZM947.043 168.632C947.043 157.266 952.47 149.026 963.324 143.911C974.179 138.797 986.567 136.069 1000.49 135.728V132.318C1000.49 127.09 999.183 123.396 996.569 121.237C993.955 119.077 990.318 117.997 985.658 117.997C982.362 117.997 979.435 118.48 976.878 119.446C974.377 120.356 972.19 121.435 970.314 122.686C968.496 123.879 966.848 125.101 965.37 126.351C962.756 128.624 960.596 128.738 958.892 126.692L951.816 117.997C950.055 115.838 950.481 113.621 953.095 111.348C955.084 109.587 957.386 108.052 960 106.745C962.671 105.438 966.194 104.216 970.57 103.08C974.946 101.886 980.629 101.29 987.619 101.29C999.439 101.29 1008.5 104.017 1014.81 109.473C1021.18 114.928 1024.36 122.97 1024.36 133.597V187.385C1024.36 190.795 1022.65 192.5 1019.24 192.5H1005.26C1002.2 192.5 1000.66 190.795 1000.66 187.385V184.828H1000.49C997.137 188.067 993.103 190.454 988.386 191.989C983.726 193.466 979.435 194.205 975.514 194.205C966.194 194.205 959.119 191.932 954.288 187.385C949.458 182.782 947.043 176.531 947.043 168.632ZM972.275 168.12C972.275 170.109 972.673 171.843 973.468 173.32C974.264 174.741 975.514 175.792 977.219 176.474C978.924 177.156 980.828 177.497 982.93 177.497C985.828 177.497 988.642 177.099 991.369 176.304C994.097 175.508 997.137 173.633 1000.49 170.678V152.18C990.943 153.26 984.55 154.652 981.311 156.357C978.071 158.062 975.741 159.823 974.321 161.642C972.957 163.46 972.275 165.62 972.275 168.12Z" fill="currentColor"/>
<path d="M1058.03 192.5C1054.05 192.5 1052.06 190.369 1052.06 186.107V174.684C1052.06 170.422 1054.05 168.291 1058.03 168.291H1070.99C1074.96 168.291 1076.95 170.422 1076.95 174.684V186.107C1076.95 190.369 1074.96 192.5 1070.99 192.5H1058.03Z" fill="currentColor"/>
</svg>
