<svg width="198" height="214" viewBox="0 0 198 214" fill="none" xmlns="http://www.w3.org/2000/svg">
<path d="M130.863 51.1239L97.7381 84.2489M160.19 82.3498C168.235 74.0198 172.687 62.8632 172.586 51.2829C172.486 39.7025 167.841 28.625 159.652 20.4361C151.463 12.2473 140.385 7.6023 128.805 7.50167C117.225 7.40104 106.068 11.8528 97.7381 19.8981L43.5716 75.5M26.9058 92.6075C14.4805 105.033 7.5 121.885 7.5 139.457C7.5 157.029 14.4805 173.882 26.9058 186.307C39.3312 198.732 56.1835 205.713 73.7556 205.713C85.7288 205.713 97.3679 202.472 107.5 196.476M190 116L127.5 179.428M77.9871 104L58.1427 123.844C56.0335 125.881 54.3512 128.318 53.1938 131.013C52.0364 133.707 51.4272 136.605 51.4017 139.537C51.3763 142.469 51.935 145.377 53.0454 148.091C54.1557 150.805 55.7955 153.27 57.869 155.344C59.9424 157.417 62.4081 159.057 65.122 160.167C67.836 161.278 70.7439 161.837 73.6761 161.811C76.6083 161.786 79.5061 161.176 82.2004 160.019C84.8946 158.862 87.3314 157.179 89.3685 155.07L142 101.027" stroke="black" strokeWidth="15" strokeLinecap="round" strokeLinejoin="round"/>
</svg>
