<svg width="20" height="20" viewBox="0 0 20 20" fill="none" xmlns="http://www.w3.org/2000/svg">
<path d="M11.4587 14.9997C11.4587 14.1943 10.8057 13.5413 10.0003 13.5413C9.19491 13.5413 8.54199 14.1943 8.54199 14.9997C8.54199 15.8051 9.19491 16.458 10.0003 16.458C10.8057 16.458 11.4587 15.8051 11.4587 14.9997Z" fill="currentColor"/>
<path d="M11.4587 9.99967C11.4587 9.19426 10.8057 8.54134 10.0003 8.54134C9.19491 8.54134 8.54199 9.19426 8.54199 9.99967C8.54199 10.8051 9.19491 11.458 10.0003 11.458C10.8057 11.458 11.4587 10.8051 11.4587 9.99967Z" fill="currentColor"/>
<path d="M11.4587 4.99967C11.4587 4.19426 10.8057 3.54134 10.0003 3.54134C9.19491 3.54134 8.54199 4.19426 8.54199 4.99967C8.54199 5.80509 9.19491 6.45801 10.0003 6.45801C10.8057 6.45801 11.4587 5.80509 11.4587 4.99967Z" fill="currentColor"/>
</svg>
