<svg width="30" height="30" viewBox="0 0 30 30" fill="none" xmlns="http://www.w3.org/2000/svg">
<path d="M17.7907 27.907H12.2093V30H17.7907V27.907ZM2.09302 17.7907V12.2093H1.7662e-06V17.7907H2.09302ZM27.9069 17.181V17.7907H29.9999V17.181H27.9069ZM19.0339 4.68983L24.5581 9.66145L25.9576 8.10424L20.4348 3.13263L19.0339 4.68983ZM29.9999 17.181C29.9999 14.8242 30.0209 13.3312 29.4278 11.9973L27.5148 12.8498C27.886 13.6842 27.9069 14.64 27.9069 17.181H29.9999ZM24.5581 9.66145C26.446 11.361 27.1437 12.0168 27.5148 12.8498L29.4278 11.9973C28.8334 10.6619 27.7102 9.68098 25.9576 8.10424L24.5581 9.66145ZM12.2511 2.0931C14.4586 2.0931 15.2916 2.10984 16.0325 2.39449L16.7832 0.441007C15.5944 -0.0166663 14.2995 7.78399e-05 12.2511 7.78399e-05V2.0931ZM20.4348 3.13402C18.9195 1.77077 17.972 0.895889 16.7832 0.441007L16.0339 2.39449C16.7762 2.67914 17.4014 3.22053 19.0339 4.68983L20.4348 3.13402ZM12.2093 27.907C9.54835 27.907 7.65905 27.9042 6.22324 27.7116C4.82092 27.5233 4.01162 27.1688 3.42139 26.5786L1.94232 28.0577C2.98604 29.1042 4.31022 29.566 5.94557 29.7865C7.55022 30.0028 9.60835 30 12.2093 30V27.907ZM1.7662e-06 17.7907C1.7662e-06 20.3917 -0.00278893 22.4484 0.21349 24.0544C0.433954 25.6898 0.897209 27.014 1.94093 28.0591L3.41999 26.58C2.83116 25.9884 2.47674 25.1791 2.28837 23.7754C2.09581 22.3423 2.09302 20.4517 2.09302 17.7907H1.7662e-06ZM17.7907 30C20.3916 30 22.4483 30.0028 24.0544 29.7865C25.6897 29.566 27.0139 29.1028 28.059 28.0591L26.5799 26.58C25.9883 27.1688 25.179 27.5233 23.7753 27.7116C22.3423 27.9042 20.4516 27.907 17.7907 27.907V30ZM27.9069 17.7907C27.9069 20.4517 27.9041 22.3423 27.7116 23.7768C27.5232 25.1791 27.1688 25.9884 26.5785 26.5786L28.0576 28.0577C29.1041 27.014 29.566 25.6898 29.7864 24.0544C30.0027 22.4498 29.9999 20.3917 29.9999 17.7907H27.9069ZM2.09302 12.2093C2.09302 9.54842 2.09581 7.65913 2.28837 6.22332C2.47674 4.821 2.83116 4.01169 3.42139 3.42146L1.94232 1.9424C0.895813 2.98612 0.433954 4.3103 0.21349 5.94564C-0.00278893 7.55029 1.7662e-06 9.60842 1.7662e-06 12.2093H2.09302ZM12.2511 7.78399e-05C9.63486 7.78399e-05 7.56835 -0.00271285 5.95673 0.213566C4.31441 0.43403 2.98604 0.897285 1.94093 1.941L3.41999 3.42007C4.01162 2.83123 4.82232 2.47682 6.2344 2.28844C7.6758 2.09589 9.57625 2.0931 12.2511 2.0931V7.78399e-05Z" fill="#882626"/>
</svg>
