<svg width="730" height="406" viewBox="0 0 730 406" fill="none" xmlns="http://www.w3.org/2000/svg">
<path d="M8 170.966C8 170.966 8 120.912 8 84.2452C8 47.5782 57.0485 7.99999 113.643 7.99999C170.237 7.99999 216 44.6681 216 84.2452C216 123.822 216 147.103 216 170.966C216 194.829 200.043 235 135.526 235C71.0084 235 57.0485 195.411 57.0485 168.056C57.0485 140.701 57.0485 125.568 57.0485 97.0494C57.0485 68.5304 86.4774 53.3978 113.643 53.3978C140.808 53.3978 170.237 72.0225 170.237 97.0494C170.237 122.076 170.237 168.056 170.237 168.056" stroke="black" stroke-width="15" stroke-linecap="round"/>
<path d="M603.714 235C603.714 235 657.921 235 686.961 235C734.194 235.239 733.981 168.669 686.961 168.5C657.921 168.5 649 168.5 628.5 168.5C608 168.5 589 152.5 589 128.532C589 104.564 608 91.0001 625 91.0001C642 91.0001 686.961 91.0003 686.961 91.0003C716 91.0003 716 128.532 686.961 128.532C657.921 128.532 639.723 128.532 639.723 128.532" stroke="black" stroke-width="15" stroke-linecap="round"/>
<path d="M498.521 228.823C532.52 228.823 564.021 198.5 564.021 161C564.021 123.5 531.437 90.9999 498.521 90.9999C456.104 90.9999 424.021 110.906 424.021 161L424.021 375.906C423.031 404.549 458.104 405.906 458.104 375.906C458.104 345.906 458.104 161 458.104 161" stroke="black" stroke-width="15" stroke-linecap="round"/>
<path d="M388.823 106.01C388.823 106.01 388.823 149.01 388.823 180.51C388.823 212.01 356.323 246.011 318.823 246.011C281.323 246.011 251 214.51 251 180.51C251 146.51 250.33 132.021 250.33 108.511C250.33 85.0001 281.323 86.0002 281.323 108.511C281.323 131.021 281.323 148.01 281.323 169.51C281.323 191.01 300.823 207.01 318.823 207.01" stroke="black" stroke-width="15" stroke-linecap="round"/>
</svg>
