<svg width="19" height="16" viewBox="0 0 19 16" fill="currentColor" xmlns="http://www.w3.org/2000/svg" xmlns:xlink="http://www.w3.org/1999/xlink">
<path d="M11.2507 4.43424H10.0007V8.60091L13.5673 10.7176L14.1673 9.70924L11.2507 7.97591V4.43424ZM10.834 0.267578C8.84486 0.267578 6.93721 1.05775 5.53068 2.46428C4.12416 3.8708 3.33398 5.77845 3.33398 7.76758H0.833984L4.13398 11.1259L7.50065 7.76758H5.00065C5.00065 6.22048 5.61523 4.73675 6.7092 3.64279C7.80316 2.54883 9.28689 1.93424 10.834 1.93424C12.3811 1.93424 13.8648 2.54883 14.9588 3.64279C16.0527 4.73675 16.6673 6.22048 16.6673 7.76758C16.6673 9.31467 16.0527 10.7984 14.9588 11.8924C13.8648 12.9863 12.3811 13.6009 10.834 13.6009C9.22565 13.6009 7.76732 12.9426 6.71732 11.8842L5.53398 13.0676C6.22699 13.7679 7.0526 14.3232 7.96259 14.7009C8.87258 15.0787 9.84872 15.2713 10.834 15.2676C12.8231 15.2676 14.7308 14.4774 16.1373 13.0709C17.5438 11.6644 18.334 9.7567 18.334 7.76758C18.334 5.77845 17.5438 3.8708 16.1373 2.46428C14.7308 1.05775 12.8231 0.267578 10.834 0.267578Z" fill="currentColor"/>
</svg>
