<svg width="26" height="26" viewBox="0 0 26 26" fill="none" xmlns="http://www.w3.org/2000/svg">
<path d="M25.2449 23.2551L19.6797 17.6875C21.3483 15.513 22.1274 12.7853 21.8588 10.0576C21.5902 7.32986 20.2941 4.80644 18.2334 2.9992C16.1727 1.19196 13.5018 0.236226 10.7623 0.325881C8.02289 0.415537 5.42012 1.54386 3.48201 3.48198C1.5439 5.42009 0.415567 8.02286 0.325912 10.7623C0.236256 13.5017 1.19199 16.1727 2.99923 18.2334C4.80647 20.2941 7.32989 21.5902 10.0576 21.8588C12.7853 22.1274 15.5131 21.3483 17.6875 19.6797L23.2574 25.2508C23.3883 25.3816 23.5435 25.4853 23.7145 25.5561C23.8854 25.6269 24.0685 25.6634 24.2535 25.6634C24.4385 25.6634 24.6217 25.6269 24.7926 25.5561C24.9635 25.4853 25.1188 25.3816 25.2496 25.2508C25.3804 25.12 25.4842 24.9647 25.555 24.7938C25.6258 24.6229 25.6622 24.4397 25.6622 24.2547C25.6622 24.0697 25.6258 23.8865 25.555 23.7156C25.4842 23.5447 25.3804 23.3894 25.2496 23.2586L25.2449 23.2551ZM3.15627 11.125C3.15627 9.54892 3.62363 8.00825 4.49925 6.69779C5.37487 5.38734 6.61941 4.36596 8.07551 3.76283C9.53161 3.15969 11.1339 3.00188 12.6796 3.30936C14.2254 3.61684 15.6453 4.37579 16.7598 5.49024C17.8742 6.60469 18.6332 8.02458 18.9407 9.57037C19.2481 11.1162 19.0903 12.7184 18.4872 14.1745C17.8841 15.6306 16.8627 16.8751 15.5522 17.7508C14.2418 18.6264 12.7011 19.0937 11.125 19.0937C9.01225 19.0916 6.98662 18.2513 5.49266 16.7574C3.9987 15.2634 3.15844 13.2378 3.15627 11.125Z" fill="darkred"/>
</svg>