<svg width="30" height="30" viewBox="0 0 30 30" fill="none" xmlns="http://www.w3.org/2000/svg">
<path d="M14.9998 10.3125C14.0727 10.3125 13.1665 10.5874 12.3956 11.1025C11.6247 11.6176 11.0239 12.3496 10.6692 13.2062C10.3144 14.0627 10.2215 15.0052 10.4024 15.9145C10.5833 16.8238 11.0297 17.659 11.6853 18.3146C12.3408 18.9701 13.1761 19.4166 14.0854 19.5974C14.9946 19.7783 15.9371 19.6855 16.7937 19.3307C17.6502 18.9759 18.3823 18.3751 18.8974 17.6042C19.4124 16.8334 19.6873 15.9271 19.6873 15C19.6836 13.7579 19.1886 12.5678 18.3103 11.6895C17.432 10.8113 16.2419 10.3162 14.9998 10.3125ZM25.1202 15C25.1177 15.438 25.0856 15.8753 25.0241 16.309L27.877 18.5426C28.0012 18.6452 28.085 18.7886 28.1132 18.9473C28.1414 19.1059 28.1123 19.2694 28.0311 19.4086L25.3323 24.068C25.2502 24.2059 25.1222 24.3105 24.9706 24.3633C24.8191 24.4162 24.6538 24.4139 24.5037 24.3568L21.1493 23.0092C20.4507 23.547 19.6863 23.9934 18.8746 24.3375L18.3731 27.8988C18.345 28.0584 18.2624 28.2032 18.1394 28.3085C18.0164 28.4139 17.8606 28.4733 17.6987 28.4766H12.301C12.142 28.4735 11.9888 28.4166 11.8663 28.3152C11.7438 28.2137 11.6593 28.0738 11.6266 27.9182L11.125 24.3568C10.3111 24.0168 9.54614 23.5697 8.85043 23.0273L5.49593 24.375C5.34598 24.4321 5.18071 24.4345 5.02918 24.3817C4.87764 24.329 4.74955 24.2245 4.66742 24.0867L1.96859 19.4279C1.88735 19.2888 1.85825 19.1252 1.88648 18.9666C1.91471 18.808 1.99843 18.6645 2.12269 18.5619L4.97562 16.3283C4.91484 15.8881 4.88274 15.4444 4.87953 15C4.88196 14.562 4.91406 14.1247 4.97562 13.691L2.12269 11.4574C1.99843 11.3548 1.91471 11.2114 1.88648 11.0527C1.85825 10.8941 1.88735 10.7306 1.96859 10.5914L4.66742 5.93203C4.74946 5.7941 4.87752 5.68952 5.02906 5.63668C5.1806 5.58384 5.34592 5.58614 5.49593 5.64316L8.85043 6.99082C9.54895 6.45296 10.3133 6.00657 11.125 5.6625L11.6266 2.10117C11.6547 1.94165 11.7373 1.79683 11.8603 1.69145C11.9833 1.58608 12.1391 1.52669 12.301 1.52344H17.6987C17.8577 1.52653 18.0109 1.58343 18.1334 1.68485C18.2559 1.78627 18.3404 1.92621 18.3731 2.08184L18.8746 5.64316C19.6896 5.98299 20.4556 6.4301 21.1522 6.97266L24.5037 5.625C24.6537 5.56792 24.819 5.56554 24.9705 5.61827C25.122 5.67099 25.2501 5.77545 25.3323 5.91328L28.0311 10.5727C28.1123 10.7118 28.1414 10.8753 28.1132 11.034C28.085 11.1926 28.0012 11.3361 27.877 11.4387L25.0241 13.6723C25.0848 14.1123 25.1169 14.5558 25.1202 15Z" fill="black"/>
</svg>
