<svg width="19" height="15" viewBox="0 0 19 15" fill="none" xmlns="http://www.w3.org/2000/svg">
<path d="M8.875 8.25C9.53804 8.25 10.1739 8.51339 10.6428 8.98223C11.1116 9.45107 11.375 10.087 11.375 10.75C11.375 11.9563 10.635 12.9125 9.61125 13.5375C8.5875 14.16 7.21875 14.5 5.75 14.5C4.28125 14.5 2.9125 14.16 1.88875 13.5375C0.86375 12.9125 0.125 11.9563 0.125 10.75C0.125 10.087 0.388392 9.45107 0.857233 8.98223C1.32607 8.51339 1.96196 8.25 2.625 8.25H8.875ZM17.1912 8.26C17.653 8.30734 18.0807 8.52425 18.3917 8.86875C18.7027 9.21325 18.8749 9.66087 18.875 10.125C18.875 11.0887 18.2875 11.8862 17.4975 12.4125C16.7038 12.9425 15.6412 13.25 14.5 13.25C13.625 13.25 12.8 13.0675 12.1038 12.7463C12.4263 12.1675 12.6237 11.5013 12.6237 10.75C12.6237 9.80125 12.2688 8.9375 11.6875 8.27625C11.7892 8.25958 11.8933 8.25083 12 8.25H17L17.1912 8.26ZM5.75 0.125C6.66168 0.125 7.53602 0.487164 8.18068 1.13182C8.82534 1.77648 9.1875 2.65082 9.1875 3.5625C9.1875 4.47418 8.82534 5.34852 8.18068 5.99318C7.53602 6.63784 6.66168 7 5.75 7C4.83832 7 3.96398 6.63784 3.31932 5.99318C2.67466 5.34852 2.3125 4.47418 2.3125 3.5625C2.3125 2.65082 2.67466 1.77648 3.31932 1.13182C3.96398 0.487164 4.83832 0.125 5.75 0.125ZM14.5025 1.37125C14.8771 1.36336 15.2495 1.43032 15.5978 1.5682C15.9462 1.70609 16.2635 1.91214 16.5312 2.17426C16.7989 2.43638 17.0116 2.7493 17.1568 3.09469C17.302 3.44007 17.3768 3.81096 17.3768 4.18563C17.3768 4.56029 17.302 4.93118 17.1568 5.27657C17.0116 5.62195 16.7989 5.93487 16.5312 6.19699C16.2635 6.45911 15.9462 6.66516 15.5978 6.80305C15.2495 6.94094 14.8771 7.00789 14.5025 7C13.7664 6.98449 13.0656 6.68116 12.5504 6.15505C12.0353 5.62894 11.7468 4.92194 11.7468 4.18563C11.7468 3.44931 12.0353 2.74231 12.5504 2.2162C13.0656 1.69009 13.7664 1.38677 14.5025 1.37125Z" fill="white"/>
</svg>